<?xml version="1.0" encoding="UTF-8" standalone="no"?>
<svg
   viewBox="0 0 319.04001 368.25"
   version="1.1"
   id="svg286"
   sodipodi:docname="logo.svg"
   inkscape:version="1.1 (c68e22c387, 2021-05-23)"
   inkscape:export-filename="C:\Users\derksk\OneDrive - NBU\Desktop\digitanalysis\man\figures\logo.png"
   inkscape:export-xdpi="70"
   inkscape:export-ydpi="70"
   width="319.04001"
   height="368.25"
   xmlns:inkscape="http://www.inkscape.org/namespaces/inkscape"
   xmlns:sodipodi="http://sodipodi.sourceforge.net/DTD/sodipodi-0.dtd"
   xmlns="http://www.w3.org/2000/svg"
   xmlns:svg="http://www.w3.org/2000/svg"
   xmlns:rdf="http://www.w3.org/1999/02/22-rdf-syntax-ns#"
   xmlns:cc="http://creativecommons.org/ns#"
   xmlns:dc="http://purl.org/dc/elements/1.1/">
  <metadata
     id="metadata290">
    <rdf:RDF>
      <cc:Work
         rdf:about="">
        <dc:format>image/svg+xml</dc:format>
        <dc:type
           rdf:resource="http://purl.org/dc/dcmitype/StillImage" />
        <dc:title />
      </cc:Work>
    </rdf:RDF>
  </metadata>
  <sodipodi:namedview
     pagecolor="#ffffff"
     bordercolor="#666666"
     borderopacity="1"
     objecttolerance="10"
     gridtolerance="10"
     guidetolerance="10"
     inkscape:pageopacity="0"
     inkscape:pageshadow="2"
     inkscape:window-width="1920"
     inkscape:window-height="1001"
     id="namedview288"
     showgrid="false"
     inkscape:zoom="1.7469907"
     inkscape:cx="195.479"
     inkscape:cy="122.21015"
     inkscape:window-x="-9"
     inkscape:window-y="-9"
     inkscape:window-maximized="1"
     inkscape:current-layer="svg286"
     inkscape:pagecheckerboard="0" />
  <defs
     id="defs4">
    <style
       type="text/css"
       id="style2"><![CDATA[
    line, polyline, polygon, path, rect, circle {
      fill: none;
      stroke: #000000;
      stroke-linecap: round;
      stroke-linejoin: round;
      stroke-miterlimit: 10.00;
    }
  ]]></style>
  </defs>
  <defs
     id="defs11">
    <clipPath
       id="cpMTExLjY4fDQzMC41N3wzNjguMjV8MC4wMA==">
      <rect
         x="111.68"
         y="0"
         width="318.89999"
         height="368.25"
         id="rect8" />
    </clipPath>
  </defs>
  <rect
     x="111.68"
     y="0"
     width="318.89999"
     height="368.25"
     style="stroke:none;stroke-width:1.07"
     clip-path="url(#cpMTExLjY4fDQzMC41N3wzNjguMjV8MC4wMA==)"
     id="rect13"
     transform="translate(-111.54)" />
  <defs
     id="defs18">
    <clipPath
       id="cpMC4wMHw1NDIuMjV8MzY4LjI1fDAuMDA=">
      <rect
         x="0"
         y="0"
         width="542.25"
         height="368.25"
         id="rect15" />
    </clipPath>
  </defs>
  <defs
     id="defs23">
    <clipPath
       id="cpMTExLjU0fDQzMC41N3wzNjguMjV8MC4wMA==">
      <rect
         x="111.54"
         y="0"
         width="319.04001"
         height="368.25"
         id="rect20" />
    </clipPath>
  </defs>
  <rect
     x="111.54"
     y="0"
     width="319.04001"
     height="368.39001"
     style="stroke:none;stroke-width:1.07"
     clip-path="url(#cpMTExLjU0fDQzMC41N3wzNjguMjV8MC4wMA==)"
     id="rect25"
     transform="translate(-111.54)" />
  <polygon
     points="271.05,364.78 427.44,274.49 427.44,93.9 271.05,3.61 114.66,93.9 114.66,274.49 "
     style="fill:#32cd87;fill-opacity:1;stroke:none;stroke-width:6.4"
     clip-path="url(#cpMTExLjU0fDQzMC41N3wzNjguMjV8MC4wMA==)"
     id="polygon27"
     transform="translate(-111.54)" />
  <defs
     id="defs32">
    <clipPath
       id="cpMTk4LjgyfDI3MS4wNXwyNzQuNDl8MTg0LjIw">
      <rect
         x="198.82001"
         y="184.2"
         width="72.230003"
         height="90.290001"
         id="rect29" />
    </clipPath>
  </defs>
  <rect
     x="198.82001"
     y="184.2"
     width="72.230003"
     height="90.290001"
     style="stroke:none;stroke-width:0.75"
     clip-path="url(#cpMTk4LjgyfDI3MS4wNXwyNzQuNDl8MTg0LjIw)"
     id="rect34"
     transform="translate(-111.54)" />
  <defs
     id="defs40">
    <clipPath
       id="clipPath38">
      <rect
         x="111.54"
         y="0"
         width="319.04001"
         height="368.25"
         id="rect36" />
    </clipPath>
  </defs>
  <defs
     id="defs46">
    <clipPath
       id="clipPath44">
      <rect
         x="198.82001"
         y="184.2"
         width="72.230003"
         height="90.290001"
         id="rect42" />
    </clipPath>
  </defs>
  <rect
     x="198.82001"
     y="184.2"
     width="72.230003"
     height="90.290001"
     style="stroke:none;stroke-width:0.75"
     clip-path="url(#cpMTk4LjgyfDI3MS4wNXwyNzQuNDl8MTg0LjIw)"
     id="rect48"
     transform="translate(-111.54)" />
  <defs
     id="defs54">
    <clipPath
       id="clipPath52">
      <rect
         x="111.54"
         y="0"
         width="319.04001"
         height="368.25"
         id="rect50" />
    </clipPath>
  </defs>
  <defs
     id="defs60">
    <clipPath
       id="clipPath58">
      <rect
         x="0"
         y="0"
         width="542.25"
         height="368.25"
         id="rect56" />
    </clipPath>
  </defs>
  <defs
     id="defs66">
    <clipPath
       id="clipPath64">
      <rect
         x="111.54"
         y="0"
         width="319.04001"
         height="368.25"
         id="rect62" />
    </clipPath>
  </defs>
  <defs
     id="defs72">
    <clipPath
       id="clipPath70">
      <rect
         x="0"
         y="0"
         width="542.25"
         height="368.25"
         id="rect68" />
    </clipPath>
  </defs>
  <defs
     id="defs78">
    <clipPath
       id="clipPath76">
      <rect
         x="111.54"
         y="0"
         width="319.04001"
         height="368.25"
         id="rect74" />
    </clipPath>
  </defs>
  <defs
     id="defs84">
    <clipPath
       id="clipPath82">
      <rect
         x="0"
         y="0"
         width="542.25"
         height="368.25"
         id="rect80" />
    </clipPath>
  </defs>
  <defs
     id="defs90">
    <clipPath
       id="clipPath88">
      <rect
         x="111.54"
         y="0"
         width="319.04001"
         height="368.25"
         id="rect86" />
    </clipPath>
  </defs>
  <defs
     id="defs96">
    <clipPath
       id="clipPath94">
      <rect
         x="0"
         y="0"
         width="542.25"
         height="368.25"
         id="rect92" />
    </clipPath>
  </defs>
  <defs
     id="defs102">
    <clipPath
       id="clipPath100">
      <rect
         x="111.54"
         y="0"
         width="319.04001"
         height="368.25"
         id="rect98" />
    </clipPath>
  </defs>
  <defs
     id="defs108">
    <clipPath
       id="clipPath106">
      <rect
         x="0"
         y="0"
         width="542.25"
         height="368.25"
         id="rect104" />
    </clipPath>
  </defs>
  <defs
     id="defs114">
    <clipPath
       id="clipPath112">
      <rect
         x="111.54"
         y="0"
         width="319.04001"
         height="368.25"
         id="rect110" />
    </clipPath>
  </defs>
  <defs
     id="defs120">
    <clipPath
       id="clipPath118">
      <rect
         x="0"
         y="0"
         width="542.25"
         height="368.25"
         id="rect116" />
    </clipPath>
  </defs>
  <defs
     id="defs126">
    <clipPath
       id="clipPath124">
      <rect
         x="111.54"
         y="0"
         width="319.04001"
         height="368.25"
         id="rect122" />
    </clipPath>
  </defs>
  <defs
     id="defs132">
    <clipPath
       id="clipPath130">
      <rect
         x="0"
         y="0"
         width="542.25"
         height="368.25"
         id="rect128" />
    </clipPath>
  </defs>
  <defs
     id="defs138">
    <clipPath
       id="clipPath136">
      <rect
         x="111.54"
         y="0"
         width="319.04001"
         height="368.25"
         id="rect134" />
    </clipPath>
  </defs>
  <defs
     id="defs144">
    <clipPath
       id="clipPath142">
      <rect
         x="0"
         y="0"
         width="542.25"
         height="368.25"
         id="rect140" />
    </clipPath>
  </defs>
  <defs
     id="defs150">
    <clipPath
       id="clipPath148">
      <rect
         x="111.54"
         y="0"
         width="319.04001"
         height="368.25"
         id="rect146" />
    </clipPath>
  </defs>
  <defs
     id="defs156">
    <clipPath
       id="clipPath154">
      <rect
         x="0"
         y="0"
         width="542.25"
         height="368.25"
         id="rect152" />
    </clipPath>
  </defs>
  <defs
     id="defs162">
    <clipPath
       id="clipPath160">
      <rect
         x="111.54"
         y="0"
         width="319.04001"
         height="368.25"
         id="rect158" />
    </clipPath>
  </defs>
  <defs
     id="defs168">
    <clipPath
       id="clipPath166">
      <rect
         x="0"
         y="0"
         width="542.25"
         height="368.25"
         id="rect164" />
    </clipPath>
  </defs>
  <defs
     id="defs174">
    <clipPath
       id="clipPath172">
      <rect
         x="111.54"
         y="0"
         width="319.04001"
         height="368.25"
         id="rect170" />
    </clipPath>
  </defs>
  <defs
     id="defs180">
    <clipPath
       id="clipPath178">
      <rect
         x="0"
         y="0"
         width="542.25"
         height="368.25"
         id="rect176" />
    </clipPath>
  </defs>
  <defs
     id="defs186">
    <clipPath
       id="clipPath184">
      <rect
         x="111.54"
         y="0"
         width="319.04001"
         height="368.25"
         id="rect182" />
    </clipPath>
  </defs>
  <defs
     id="defs192">
    <clipPath
       id="clipPath190">
      <rect
         x="0"
         y="0"
         width="542.25"
         height="368.25"
         id="rect188" />
    </clipPath>
  </defs>
  <defs
     id="defs198">
    <clipPath
       id="clipPath196">
      <rect
         x="111.54"
         y="0"
         width="319.04001"
         height="368.25"
         id="rect194" />
    </clipPath>
  </defs>
  <defs
     id="defs204">
    <clipPath
       id="clipPath202">
      <rect
         x="0"
         y="0"
         width="542.25"
         height="368.25"
         id="rect200" />
    </clipPath>
  </defs>
  <defs
     id="defs210">
    <clipPath
       id="clipPath208">
      <rect
         x="111.54"
         y="0"
         width="319.04001"
         height="368.25"
         id="rect206" />
    </clipPath>
  </defs>
  <defs
     id="defs216">
    <clipPath
       id="clipPath214">
      <rect
         x="0"
         y="0"
         width="542.25"
         height="368.25"
         id="rect212" />
    </clipPath>
  </defs>
  <defs
     id="defs222">
    <clipPath
       id="clipPath220">
      <rect
         x="111.54"
         y="0"
         width="319.04001"
         height="368.25"
         id="rect218" />
    </clipPath>
  </defs>
  <defs
     id="defs228">
    <clipPath
       id="clipPath226">
      <rect
         x="0"
         y="0"
         width="542.25"
         height="368.25"
         id="rect224" />
    </clipPath>
  </defs>
  <defs
     id="defs234">
    <clipPath
       id="clipPath232">
      <rect
         x="111.54"
         y="0"
         width="319.04001"
         height="368.25"
         id="rect230" />
    </clipPath>
  </defs>
  <defs
     id="defs240">
    <clipPath
       id="clipPath238">
      <rect
         x="0"
         y="0"
         width="542.25"
         height="368.25"
         id="rect236" />
    </clipPath>
  </defs>
  <defs
     id="defs246">
    <clipPath
       id="clipPath244">
      <rect
         x="111.54"
         y="0"
         width="319.04001"
         height="368.25"
         id="rect242" />
    </clipPath>
  </defs>
  <polyline
     points="114.66,93.90 114.66,274.49 271.05,364.78 427.44,274.49 427.44,93.90 271.05,3.61 114.66,93.90 114.66,93.90 "
     style="stroke:#152c52;stroke-width:6.4"
     clip-path="url(#cpMTExLjU0fDQzMC41N3wzNjguMjV8MC4wMA==)"
     id="polyline248"
     transform="translate(-111.54)" />
  <defs
     id="defs284">
    <clipPath
       id="clipPath282">
      <rect
         x="0"
         y="0"
         width="542.25"
         height="368.25"
         id="rect280" />
    </clipPath>
  </defs>
  <text
     xml:space="preserve"
     style="font-style:normal;font-weight:normal;font-size:40px;line-height:1.25;font-family:sans-serif;fill:#ffffff;fill-opacity:1;stroke:none"
     x="65.908012"
     y="274.18579"
     id="text12872"><tspan
       sodipodi:role="line"
       id="tspan12870"
       x="65.908012"
       y="274.18579"
       style="font-style:normal;font-variant:normal;font-weight:normal;font-stretch:normal;font-family:sans-serif;-inkscape-font-specification:sans-serif">digitTests</tspan></text>
  <polyline
     points="62.05,292.52 66.37,291.93 70.68,288.45 74.99,280.70 79.31,268.41 83.62,251.99 87.94,232.25 92.25,210.14 96.56,186.68 100.88,162.81 105.19,139.37 109.51,117.08 113.82,96.47 118.13,77.98 122.45,61.89 126.76,48.37 131.08,37.48 135.39,29.22 139.70,23.51 144.02,20.21 148.33,19.15 152.65,20.14 156.96,22.97 161.27,27.42 165.59,33.27 169.90,40.31 174.22,48.34 178.53,57.15 182.84,66.58 187.16,76.47 191.47,86.65 195.79,97.01 200.10,107.43 204.41,117.80 208.73,128.05 213.04,138.10 217.36,147.89 221.67,157.37 225.98,166.51 230.30,175.27 234.61,183.64 238.93,191.60 243.24,199.14 247.55,206.27 251.87,212.98 256.18,219.29 260.50,225.19 264.81,230.71 269.12,235.85 273.44,240.63 277.75,245.07 282.07,249.18 286.38,252.98 290.69,256.48 295.01,259.71 299.32,262.69 303.64,265.42 307.95,267.92 312.26,270.21 316.58,272.31 320.89,274.22 325.21,275.97 329.52,277.57 333.83,279.02 338.15,280.33 342.46,281.53 346.78,282.62 351.09,283.61 355.40,284.50 359.72,285.31 364.03,286.04 368.34,286.70 372.66,287.29 376.97,287.83 381.29,288.32 385.60,288.75 389.91,289.15 394.23,289.50 398.54,289.82 402.86,290.10 407.17,290.36 411.48,290.59 415.80,290.80 420.11,290.98 424.43,291.15 428.74,291.30 433.05,291.43 437.37,291.55 441.68,291.65 446.00,291.75 450.31,291.83 454.62,291.91 458.94,291.98 463.25,292.04 467.57,292.09 471.88,292.14 476.19,292.18 480.51,292.22 484.82,292.25 489.14,292.28 493.45,292.31 "
     style="fill:none;stroke:#152c52;stroke-width:30.5817;stroke-linecap:butt;stroke-linejoin:round;stroke-miterlimit:10;stroke-dasharray:none;stroke-opacity:1"
     id="polyline54"
     transform="matrix(0.71756574,0,0,0.45174623,-40.216186,70.771417)" />
  <text
     xml:space="preserve"
     style="font-style:normal;font-weight:normal;font-size:40px;line-height:1.25;font-family:sans-serif;fill:#ffffff;fill-opacity:1;stroke:none"
     x="48.783852"
     y="168.88936"
     id="text18235"><tspan
       sodipodi:role="line"
       id="tspan18233"
       x="48.783852"
       y="168.88936">2</tspan></text>
  <text
     xml:space="preserve"
     style="font-style:normal;font-weight:normal;font-size:40px;line-height:1.25;font-family:sans-serif;fill:#ffffff;fill-opacity:1;stroke:none"
     x="83.121727"
     y="202.84802"
     id="text19415"><tspan
       sodipodi:role="line"
       id="tspan19413"
       x="83.121727"
       y="202.84802">3</tspan></text>
  <text
     xml:space="preserve"
     style="font-style:normal;font-weight:normal;font-size:40px;line-height:1.25;font-family:sans-serif;fill:#ffffff;fill-opacity:1;stroke:none"
     x="115.45272"
     y="185.46178"
     id="text19749"><tspan
       sodipodi:role="line"
       id="tspan19747"
       x="115.45272"
       y="185.46178">4</tspan></text>
  <text
     xml:space="preserve"
     style="font-style:normal;font-weight:normal;font-size:40px;line-height:1.25;font-family:sans-serif;fill:#ffffff;fill-opacity:1;stroke:none"
     x="147.2113"
     y="201.46178"
     id="text20157"><tspan
       sodipodi:role="line"
       id="tspan20155"
       x="147.2113"
       y="201.46178">5</tspan></text>
  <text
     xml:space="preserve"
     style="font-style:normal;font-weight:normal;font-size:40px;line-height:1.25;font-family:sans-serif;fill:#ffffff;fill-opacity:1;stroke:none"
     x="180.97678"
     y="202.88936"
     id="text20359"><tspan
       sodipodi:role="line"
       id="tspan20357"
       x="180.97678"
       y="202.88936">6</tspan></text>
  <text
     xml:space="preserve"
     style="font-style:normal;font-weight:normal;font-size:40px;line-height:1.25;font-family:sans-serif;fill:#ffffff;fill-opacity:1;stroke:none"
     x="243.63873"
     y="169.74454"
     id="text20495"><tspan
       sodipodi:role="line"
       id="tspan20493"
       x="243.63873"
       y="169.74454">8</tspan></text>
  <text
     xml:space="preserve"
     style="font-style:normal;font-weight:normal;font-size:40px;line-height:1.25;font-family:sans-serif;fill:#ffffff;fill-opacity:1;stroke:none"
     x="211.88016"
     y="202.55836"
     id="text21269"><tspan
       sodipodi:role="line"
       id="tspan21267"
       x="211.88016"
       y="202.55836">7</tspan></text>
  <text
     xml:space="preserve"
     style="font-style:normal;font-weight:normal;font-size:40px;line-height:1.25;font-family:sans-serif;fill:#ffffff;fill-opacity:1;stroke:none"
     x="275.11456"
     y="201.74452"
     id="text21471"><tspan
       sodipodi:role="line"
       id="tspan21469"
       x="275.11456"
       y="201.74452">9</tspan></text>
  <text
     xml:space="preserve"
     style="font-style:normal;font-weight:normal;font-size:40px;line-height:1.25;font-family:sans-serif;fill:#000000;fill-opacity:1;stroke:none"
     x="15.873543"
     y="204.31696"
     id="text7916"><tspan
       id="tspan7914"
       x="15.873543"
       y="204.31696"
       style="fill:#ffffff;fill-opacity:1"
       sodipodi:role="line">1</tspan></text>
</svg>
